<svg width="100" height="100" viewBox="0 0 100 100" fill="none" xmlns="http://www.w3.org/2000/svg">
<path d="M67.8576 10.7143H78.5719C80.4663 10.7143 82.2831 11.4668 83.6226 12.8064C84.9622 14.1459 85.7147 15.9627 85.7147 17.8572V89.2857C85.7147 91.1801 84.9622 92.9969 83.6226 94.3365C82.2831 95.676 80.4663 96.4286 78.5719 96.4286H21.429C19.5346 96.4286 17.7178 95.676 16.3782 94.3365C15.0387 92.9969 14.2861 91.1801 14.2861 89.2857V17.8572C14.2861 15.9627 15.0387 14.1459 16.3782 12.8064C17.7178 11.4668 19.5346 10.7143 21.429 10.7143H32.1433" stroke="#CB0000" stroke-width="6" stroke-linecap="round" stroke-linejoin="round"/>
<path d="M60.715 3.57141H39.2864C35.3415 3.57141 32.1436 6.76938 32.1436 10.7143V14.2857C32.1436 18.2306 35.3415 21.4286 39.2864 21.4286H60.715C64.6599 21.4286 67.8578 18.2306 67.8578 14.2857V10.7143C67.8578 6.76938 64.6599 3.57141 60.715 3.57141Z" stroke="#CB0000" stroke-width="6" stroke-linecap="round" stroke-linejoin="round"/>
<path d="M32.1436 39.2857H67.8578M32.1436 57.1428H67.8578M32.1436 75H67.8578" stroke="#CB0000" stroke-width="6" stroke-linecap="round" stroke-linejoin="round"/>
</svg>
