<svg width="100" height="100" viewBox="0 0 100 100" fill="none" xmlns="http://www.w3.org/2000/svg">
<g id="Group 256">
<rect id="Rectangle 17" width="100" height="100" rx="15" fill="#CB0000"/>
<path id="3" d="M47.8396 72.6C44.8796 72.6 41.9796 72.18 39.1396 71.34C36.3396 70.46 33.9796 69.26 32.0596 67.74L35.4196 61.68C36.9396 62.92 38.7796 63.92 40.9396 64.68C43.0996 65.44 45.3596 65.82 47.7196 65.82C50.5196 65.82 52.6996 65.26 54.2596 64.14C55.8196 62.98 56.5996 61.42 56.5996 59.46C56.5996 57.54 55.8796 56.02 54.4396 54.9C52.9996 53.78 50.6796 53.22 47.4796 53.22H43.6396V47.88L55.6396 33.6L56.6596 36.54H34.0996V30H62.7196V35.22L50.7196 49.5L46.6396 47.1H48.9796C54.1396 47.1 57.9996 48.26 60.5596 50.58C63.1596 52.86 64.4596 55.8 64.4596 59.4C64.4596 61.76 63.8596 63.94 62.6596 65.94C61.4596 67.94 59.6196 69.56 57.1396 70.8C54.6996 72 51.5996 72.6 47.8396 72.6Z" fill="white"/>
</g>
</svg>
