<svg width="100" height="100" viewBox="0 0 100 100" fill="none" xmlns="http://www.w3.org/2000/svg">
<g id="Group 255">
<path id="Rectangle 16" d="M0 15C0 6.71573 6.71573 0 15 0H85C93.2843 0 100 6.71573 100 15V85C100 93.2843 93.2843 100 85 100H15C6.71573 100 0 93.2843 0 85V15Z" fill="#CB0000"/>
<path id="2" d="M34.1005 72V66.78L50.7805 50.94C52.1805 49.62 53.2205 48.46 53.9005 47.46C54.5805 46.46 55.0205 45.54 55.2205 44.7C55.4605 43.82 55.5805 43 55.5805 42.24C55.5805 40.32 54.9205 38.84 53.6005 37.8C52.2805 36.72 50.3405 36.18 47.7805 36.18C45.7405 36.18 43.8805 36.54 42.2005 37.26C40.5605 37.98 39.1405 39.08 37.9405 40.56L32.4805 36.36C34.1205 34.16 36.3205 32.46 39.0805 31.26C41.8805 30.02 45.0005 29.4 48.4405 29.4C51.4805 29.4 54.1205 29.9 56.3605 30.9C58.6405 31.86 60.3805 33.24 61.5805 35.04C62.8205 36.84 63.4405 38.98 63.4405 41.46C63.4405 42.82 63.2605 44.18 62.9005 45.54C62.5405 46.86 61.8605 48.26 60.8605 49.74C59.8605 51.22 58.4005 52.88 56.4805 54.72L42.1405 68.34L40.5205 65.4H65.0605V72H34.1005Z" fill="white"/>
</g>
</svg>
