<svg width="248" height="50" viewBox="0 0 248 50" fill="none" xmlns="http://www.w3.org/2000/svg">
<path d="M81.4604 40.3996C79.3338 40.3996 77.3534 40.0529 75.5193 39.3596C73.7117 38.6396 72.1301 37.6396 70.7744 36.3596C69.4453 35.0529 68.4086 33.5196 67.6643 31.7596C66.92 29.9996 66.5479 28.0796 66.5479 25.9996C66.5479 23.9196 66.92 21.9996 67.6643 20.2396C68.4086 18.4796 69.4586 16.9596 70.8143 15.6796C72.1699 14.3729 73.7516 13.3729 75.5592 12.6796C77.3667 11.9596 79.3471 11.5996 81.5002 11.5996C83.7863 11.5996 85.873 11.9996 87.7603 12.7996C89.6476 13.5729 91.2426 14.7329 92.5451 16.2796L89.1957 19.4396C88.1856 18.3463 87.0559 17.5329 85.8065 16.9996C84.5572 16.4396 83.2015 16.1596 81.7395 16.1596C80.2775 16.1596 78.9351 16.3996 77.7123 16.8796C76.5161 17.3596 75.4661 18.0396 74.5623 18.9196C73.6851 19.7996 72.994 20.8396 72.4889 22.0396C72.0105 23.2396 71.7712 24.5596 71.7712 25.9996C71.7712 27.4396 72.0105 28.7596 72.4889 29.9596C72.994 31.1596 73.6851 32.1996 74.5623 33.0796C75.4661 33.9596 76.5161 34.6396 77.7123 35.1196C78.9351 35.5996 80.2775 35.8396 81.7395 35.8396C83.2015 35.8396 84.5572 35.5729 85.8065 35.0396C87.0559 34.4796 88.1856 33.6396 89.1957 32.5196L92.5451 35.7196C91.2426 37.2396 89.6476 38.3996 87.7603 39.1996C85.873 39.9996 83.773 40.3996 81.4604 40.3996Z" fill="#D50000"/>
<path d="M109.957 39.9996V35.6796L109.678 34.7596V27.1996C109.678 25.7329 109.239 24.5996 108.362 23.7996C107.485 22.9729 106.156 22.5596 104.375 22.5596C103.178 22.5596 101.995 22.7463 100.826 23.1196C99.6829 23.4929 98.7126 24.0129 97.9152 24.6796L95.9614 21.0396C97.1044 20.1596 98.4601 19.5063 100.028 19.0796C101.623 18.6263 103.271 18.3996 104.973 18.3996C108.056 18.3996 110.435 19.1463 112.11 20.6396C113.811 22.1063 114.662 24.3863 114.662 27.4796V39.9996H109.957ZM103.258 40.2796C101.663 40.2796 100.268 40.0129 99.0715 39.4796C97.8753 38.9196 96.9449 38.1596 96.2804 37.1996C95.6424 36.2129 95.3234 35.1063 95.3234 33.8796C95.3234 32.6796 95.6025 31.5996 96.1607 30.6396C96.7456 29.6796 97.6892 28.9196 98.9917 28.3596C100.294 27.7996 102.022 27.5196 104.175 27.5196H110.356V30.8396H104.534C102.833 30.8396 101.69 31.1196 101.105 31.6796C100.52 32.2129 100.228 32.8796 100.228 33.6796C100.228 34.5863 100.587 35.3063 101.304 35.8396C102.022 36.3729 103.019 36.6396 104.295 36.6396C105.518 36.6396 106.607 36.3596 107.564 35.7996C108.548 35.2396 109.252 34.4129 109.678 33.3196L110.515 36.3196C110.037 37.5729 109.173 38.5463 107.923 39.2396C106.701 39.9329 105.145 40.2796 103.258 40.2796Z" fill="#D50000"/>
<path d="M121.058 39.9996V18.6396H125.803V24.5196L125.245 22.7996C125.883 21.3596 126.88 20.2663 128.235 19.5196C129.618 18.7729 131.332 18.3996 133.379 18.3996V23.1596C133.166 23.1063 132.967 23.0796 132.781 23.0796C132.595 23.0529 132.409 23.0396 132.223 23.0396C130.335 23.0396 128.834 23.5996 127.717 24.7196C126.601 25.8129 126.042 27.4529 126.042 29.6396V39.9996H121.058Z" fill="#D50000"/>
<path d="M143.981 40.0003V16.4003H134.73V12.0003H158.415V16.4003H149.165V40.0003H143.981Z" fill="white"/>
<path d="M161.32 40.0003V18.6403H166.065V24.5203L165.507 22.8003C166.145 21.3603 167.142 20.267 168.498 19.5203C169.88 18.7736 171.594 18.4003 173.641 18.4003V23.1603C173.429 23.107 173.229 23.0803 173.043 23.0803C172.857 23.0536 172.671 23.0403 172.485 23.0403C170.598 23.0403 169.096 23.6003 167.979 24.7203C166.863 25.8136 166.305 27.4536 166.305 29.6403V40.0003H161.32Z" fill="white"/>
<path d="M189.469 40.0003V35.6803L189.19 34.7603V27.2003C189.19 25.7336 188.751 24.6003 187.874 23.8003C186.997 22.9736 185.668 22.5603 183.887 22.5603C182.691 22.5603 181.508 22.747 180.338 23.1203C179.195 23.4936 178.225 24.0136 177.427 24.6803L175.474 21.0403C176.617 20.1603 177.972 19.507 179.541 19.0803C181.136 18.627 182.784 18.4003 184.485 18.4003C187.568 18.4003 189.947 19.147 191.622 20.6403C193.323 22.107 194.174 24.387 194.174 27.4803V40.0003H189.469ZM182.77 40.2803C181.175 40.2803 179.78 40.0136 178.584 39.4803C177.387 38.9203 176.457 38.1603 175.793 37.2003C175.155 36.2136 174.836 35.107 174.836 33.8803C174.836 32.6803 175.115 31.6003 175.673 30.6403C176.258 29.6803 177.201 28.9203 178.504 28.3603C179.806 27.8003 181.534 27.5203 183.687 27.5203H189.868V30.8403H184.046C182.345 30.8403 181.202 31.1203 180.617 31.6803C180.032 32.2136 179.74 32.8803 179.74 33.6803C179.74 34.587 180.099 35.307 180.817 35.8403C181.534 36.3736 182.531 36.6403 183.807 36.6403C185.03 36.6403 186.12 36.3603 187.077 35.8003C188.06 35.2403 188.765 34.4136 189.19 33.3203L190.027 36.3203C189.549 37.5736 188.685 38.547 187.435 39.2403C186.213 39.9336 184.658 40.2803 182.77 40.2803Z" fill="white"/>
<path d="M209.621 40.2803C207.574 40.2803 205.726 39.827 204.078 38.9203C202.457 37.987 201.181 36.707 200.251 35.0803C199.32 33.4536 198.855 31.5336 198.855 29.3203C198.855 27.107 199.32 25.187 200.251 23.5603C201.181 21.9336 202.457 20.667 204.078 19.7603C205.726 18.8536 207.574 18.4003 209.621 18.4003C211.402 18.4003 212.997 18.8003 214.406 19.6003C215.814 20.3736 216.931 21.5603 217.755 23.1603C218.579 24.7603 218.991 26.8136 218.991 29.3203C218.991 31.8003 218.592 33.8536 217.795 35.4803C216.997 37.0803 215.894 38.2803 214.485 39.0803C213.076 39.8803 211.455 40.2803 209.621 40.2803ZM210.219 36.0003C211.415 36.0003 212.478 35.7336 213.409 35.2003C214.366 34.667 215.123 33.8936 215.681 32.8803C216.266 31.867 216.559 30.6803 216.559 29.3203C216.559 27.9336 216.266 26.747 215.681 25.7603C215.123 24.747 214.366 23.9736 213.409 23.4403C212.478 22.907 211.415 22.6403 210.219 22.6403C209.023 22.6403 207.946 22.907 206.989 23.4403C206.059 23.9736 205.301 24.747 204.716 25.7603C204.158 26.747 203.879 27.9336 203.879 29.3203C203.879 30.6803 204.158 31.867 204.716 32.8803C205.301 33.8936 206.059 34.667 206.989 35.2003C207.946 35.7336 209.023 36.0003 210.219 36.0003ZM216.678 40.0003V34.9603L216.878 29.2803L216.479 23.6003V10.3203H221.423V40.0003H216.678Z" fill="white"/>
<path d="M237.991 40.2803C235.626 40.2803 233.552 39.8136 231.771 38.8803C230.017 37.9203 228.648 36.6136 227.664 34.9603C226.707 33.307 226.229 31.427 226.229 29.3203C226.229 27.187 226.694 25.307 227.624 23.6803C228.581 22.027 229.884 20.7336 231.532 19.8003C233.207 18.867 235.107 18.4003 237.234 18.4003C239.307 18.4003 241.155 18.8536 242.776 19.7603C244.398 20.667 245.674 21.947 246.604 23.6003C247.534 25.2536 247.999 27.2003 247.999 29.4403C247.999 29.6536 247.986 29.8936 247.96 30.1603C247.96 30.427 247.946 30.6803 247.92 30.9203H230.176V27.6003H245.288L243.334 28.6403C243.361 27.4136 243.108 26.3336 242.577 25.4003C242.045 24.467 241.314 23.7336 240.384 23.2003C239.48 22.667 238.43 22.4003 237.234 22.4003C236.011 22.4003 234.934 22.667 234.004 23.2003C233.1 23.7336 232.383 24.4803 231.851 25.4403C231.346 26.3736 231.093 27.4803 231.093 28.7603V29.5603C231.093 30.8403 231.386 31.9736 231.971 32.9603C232.555 33.947 233.379 34.707 234.443 35.2403C235.506 35.7736 236.729 36.0403 238.111 36.0403C239.307 36.0403 240.384 35.8536 241.341 35.4803C242.298 35.107 243.148 34.5203 243.893 33.7203L246.564 36.8003C245.607 37.9203 244.398 38.787 242.936 39.4003C241.5 39.987 239.852 40.2803 237.991 40.2803Z" fill="white"/>
<ellipse cx="24.9206" cy="25" rx="24.9206" ry="25" fill="#CB0000"/>
<g clip-path="url(#clip0_415_1152)">
<path d="M42.6389 34.4851C42.5968 34.7734 42.5267 35.0546 42.4216 35.2726C42.2323 35.6593 42.0501 35.6945 41.3352 35.6593C40.41 35.6171 39.0853 35.6593 37.6835 35.7156C37.6835 36.1023 37.6976 36.2851 37.6976 36.2851C37.7887 37.3468 38.2653 37.382 38.4545 37.382H41.4684C41.7347 37.382 41.98 37.382 42.1693 37.2554C42.4146 37.0937 42.5197 36.6226 42.6108 35.8C42.6248 35.6804 42.6318 35.5257 42.6389 35.3429V35.3359C42.6389 35.2796 42.6459 35.2093 42.6459 35.132V35.0546C42.6459 34.8648 42.6459 34.6539 42.6389 34.4851ZM7.18767 34.4851C7.22973 34.7734 7.29982 35.0546 7.40495 35.2726C7.59419 35.6593 7.77642 35.6945 8.49133 35.6593C9.41651 35.6171 10.7412 35.6593 12.143 35.7156C12.143 36.1023 12.129 36.2851 12.129 36.2851C12.0379 37.3468 11.5612 37.382 11.372 37.382H8.35816C8.09183 37.382 7.86754 37.382 7.65727 37.2554C7.40495 37.1078 7.30682 36.6226 7.21571 35.8C7.20169 35.6804 7.19468 35.5257 7.18767 35.3429V35.3359C7.18767 35.2796 7.18066 35.2093 7.18066 35.132V35.0546C7.18767 34.8648 7.18767 34.6539 7.18767 34.4851Z" fill="white"/>
<path d="M42.8633 27.8543C42.8633 25.6957 42.5829 23.5863 42.4708 23.3543C42.3867 23.1855 41.847 22.7426 40.6204 21.9059C39.3798 21.0551 39.4079 21.1816 39.1836 20.6262C39.3868 20.5629 39.5831 20.4434 39.7022 20.4293C39.9686 20.4012 39.9826 20.6543 40.5363 20.6543C41.09 20.6543 42.2885 20.5066 42.5338 20.2605C42.7792 20.0145 42.8563 19.9301 42.8563 19.7121C42.8563 19.4941 42.7301 19.0441 42.4918 18.777C42.2535 18.5098 41.2372 18.3762 40.6414 18.2988C40.0457 18.2215 39.9616 18.2988 39.8074 18.3973C39.5621 18.552 39.548 19.9652 39.548 19.9652L38.9663 19.9793C38.5878 19.0441 38.0622 17.1598 37.2421 15.6762C36.345 14.059 35.4058 13.5527 35.0133 13.4262C34.6278 13.3066 34.2773 13.2223 31.649 12.9551C28.9646 12.6738 26.8268 12.6387 24.9204 12.6387C23.014 12.6387 20.8763 12.6809 18.1918 12.9551C15.5635 13.2293 15.213 13.3066 14.8275 13.4262C14.4421 13.5457 13.4958 14.059 12.5987 15.6762C11.7787 17.1598 11.253 19.0441 10.8745 19.9793L10.2928 19.9652C10.2928 19.9652 10.2858 18.552 10.0334 18.3973C9.87924 18.2988 9.79513 18.2145 9.19937 18.2988C8.60361 18.3832 7.58732 18.5098 7.34901 18.777C7.11071 19.0441 6.98455 19.4941 6.98455 19.7121C6.98455 19.9301 7.06165 20.0215 7.30696 20.2605C7.55227 20.5066 8.7508 20.6543 9.3045 20.6543C9.85821 20.6543 9.87223 20.4012 10.1386 20.4293C10.2577 20.4434 10.461 20.5629 10.6572 20.6262C10.4259 21.1816 10.461 21.0551 9.2204 21.9059C7.99383 22.7496 7.44714 23.1855 7.37004 23.3543C7.2579 23.5863 6.97754 25.6957 6.97754 27.8543C6.97754 30.0129 7.13174 31.9535 7.13174 32.6426C7.13174 32.9309 7.13174 33.4371 7.19482 33.9223C7.23687 34.2105 7.29995 34.4918 7.41209 34.7098C7.60133 35.0965 7.77656 35.1316 8.49848 35.0965C9.42366 35.0543 10.7624 35.0965 12.1431 35.1527C13.0683 35.1879 14.0145 35.223 14.8556 35.2441C16.9583 35.2863 16.3415 34.9348 17.2386 34.9488C18.1358 34.9629 21.6753 35.1105 24.9134 35.1105C28.1515 35.1105 31.698 34.9629 32.5882 34.9488C33.4853 34.9348 32.8685 35.2863 34.9712 35.2441C35.8123 35.2301 36.7585 35.1879 37.6837 35.1527C39.0644 35.1035 40.4101 35.0543 41.3283 35.0965C42.0502 35.1316 42.2255 35.0965 42.4147 34.7098C42.5198 34.4918 42.5899 34.2105 42.632 33.9223C42.7021 33.4371 42.6951 32.9309 42.6951 32.6426C42.7091 31.9605 42.8633 30.0129 42.8633 27.8543ZM13.0192 17.209C13.3557 16.4215 14.365 14.8395 14.8556 14.5582C14.9747 14.4879 16.0191 14.1574 18.6334 13.9816C21.0375 13.8199 23.6938 13.7566 24.9274 13.7566C26.161 13.7566 28.8174 13.8199 31.2214 13.9816C33.8288 14.1574 34.8871 14.4809 34.9992 14.5582C35.6301 14.9941 36.4992 16.4215 36.8356 17.209C37.172 17.9965 37.6206 19.5434 37.5365 19.7543C37.4524 19.9652 37.6206 20.0707 36.4851 19.9793C35.3567 19.8949 28.2707 19.8035 24.9344 19.8035C21.6052 19.8035 14.5191 19.8949 13.3837 19.9793C12.2483 20.0637 12.4165 19.9652 12.3324 19.7543C12.2342 19.5434 12.6828 18.0035 13.0192 17.209ZM15.5985 26.0121C15.0939 26.1387 14.7925 26.4129 14.1617 26.4059C13.5309 26.4059 11.8277 26.1176 11.4633 26.1035C11.0988 26.0895 10.7764 26.3496 10.5871 26.3988C10.3979 26.448 10.0264 26.3145 9.46571 26.1387C8.905 25.9629 8.57558 26.0121 8.39334 25.2457C8.2041 24.4863 8.39334 23.3965 8.39334 23.3965C9.60589 23.3402 10.7764 23.4527 12.9702 24.0715C15.164 24.6902 16.3835 25.8785 16.3835 25.8785C16.3835 25.8785 16.1032 25.8855 15.5985 26.0121ZM32.0835 31.5527C31.0813 31.6863 26.8829 31.7215 24.9204 31.7215C22.9579 31.7215 18.7596 31.6793 17.7573 31.5527C16.734 31.4191 15.4023 30.1887 16.3204 29.2113C17.561 27.8824 17.3297 27.9246 20.1473 27.559C22.5864 27.2426 24.4368 27.2285 24.9204 27.2285C25.397 27.2285 27.2544 27.2496 29.6935 27.559C32.5111 27.9246 32.2798 27.8824 33.5204 29.2113C34.4385 30.1887 33.1068 31.4191 32.0835 31.5527ZM41.4475 25.2527C41.2582 26.0121 40.9358 25.9699 40.3751 26.1457C39.8144 26.3215 39.4429 26.448 39.2537 26.4059C39.0644 26.3637 38.742 26.1035 38.3776 26.1105C38.0131 26.1246 36.3099 26.4129 35.6791 26.4129C35.0483 26.4129 34.7469 26.1457 34.2423 26.0191C33.7376 25.8926 33.4573 25.8926 33.4573 25.8926C33.4573 25.8926 34.6698 24.6973 36.8706 24.0855C39.0644 23.4668 40.2349 23.3543 41.4475 23.4105C41.4475 23.3965 41.6367 24.4863 41.4475 25.2527Z" fill="white"/>
</g>
<defs>
<clipPath id="clip0_415_1152">
<rect width="35.8857" height="36" fill="white" transform="translate(6.97754 7)"/>
</clipPath>
</defs>
</svg>
