<svg width="50" height="50" viewBox="0 0 50 50" fill="none" xmlns="http://www.w3.org/2000/svg">
<path d="M9.85005 33.6187C6.6313 30.3979 5.02088 28.7896 4.42296 26.7C3.82296 24.6104 4.33546 22.3917 5.36046 17.9562L5.95005 15.3979C6.81046 11.6646 7.24171 9.79791 8.5188 8.51875C9.79796 7.24166 11.6646 6.81041 15.398 5.95L17.9563 5.35833C22.3938 4.33541 24.6105 3.82291 26.7 4.42083C28.7896 5.02083 30.398 6.63125 33.6167 9.85L37.4292 13.6625C43.0355 19.2667 45.8334 22.0667 45.8334 25.5458C45.8334 29.0271 43.0313 31.8271 37.4292 37.4292C31.8271 43.0354 29.0271 45.8333 25.5459 45.8333C22.0667 45.8333 19.2646 43.0312 13.6625 37.4292L9.85005 33.6187Z" stroke="#CB0000" stroke-width="4"/>
<path d="M32.0622 32.0625C33.2809 30.8396 33.4455 29.0271 32.4288 28.0083C31.4122 26.9917 29.5976 27.1563 28.3767 28.3771C27.158 29.5979 25.3434 29.7625 24.3267 28.7458C23.3101 27.7292 23.4747 25.9146 24.6955 24.6958M24.6955 24.6958L23.958 23.9583M24.6955 24.6958C25.3851 24.0042 26.2642 23.6542 27.083 23.6604M32.7976 32.7979L32.0601 32.0604C31.2267 32.8958 30.1122 33.2375 29.1663 33.0417" stroke="#CB0000" stroke-width="2" stroke-linecap="round"/>
<path d="M20.8779 21.4445C22.5051 19.8173 22.5051 17.1791 20.8779 15.5519C19.2507 13.9247 16.6125 13.9247 14.9853 15.5519C13.3582 17.1791 13.3582 19.8173 14.9853 21.4445C16.6125 23.0716 19.2507 23.0716 20.8779 21.4445Z" stroke="#CB0000" stroke-width="3"/>
</svg>
