<svg width="50" height="50" viewBox="0 0 50 50" fill="none" xmlns="http://www.w3.org/2000/svg">
<g id="codicon:tools">
<path id="Vector" fill-rule="evenodd" clip-rule="evenodd" d="M46.166 10.8902L43.7285 10.3152L37.141 16.8652L33.4098 13.0652L39.8348 6.32459L39.2723 3.84959C37.9145 3.39537 36.4945 3.155 35.0629 3.13709C33.5012 3.11307 31.9513 3.41093 30.5098 4.01209C29.1179 4.64212 27.8598 5.53321 26.8035 6.63709C25.6277 7.75087 24.6965 9.09711 24.0691 10.5902C22.8612 13.5617 22.8612 16.8875 24.0691 19.859C17.5543 26.2683 11.1235 32.7626 4.77852 39.3402C4.12227 40.1996 3.80977 41.2715 3.89102 42.3496C3.95505 43.5092 4.47654 44.596 5.34102 45.3715C5.72852 45.7933 6.19102 46.1433 6.70664 46.3965C7.23789 46.6308 7.80977 46.7652 8.38789 46.7933C9.37539 46.7746 10.3223 46.3996 11.0566 45.7402C15.8941 41.1871 25.1629 31.834 30.4285 26.3527C31.8566 26.959 33.391 27.2715 34.941 27.2683C36.5013 27.2671 38.0454 26.9532 39.4823 26.345C40.9192 25.7369 42.2196 24.8469 43.3066 23.7277C45.5396 21.4504 46.7868 18.3859 46.7785 15.1965C46.8146 13.737 46.6076 12.2817 46.166 10.8902ZM9.16602 43.5246C9.04573 43.6314 8.90075 43.7066 8.74414 43.7433C8.59008 43.77 8.43258 43.77 8.27852 43.7433C8.11698 43.7187 7.96313 43.6578 7.82852 43.5652C7.68407 43.4807 7.56192 43.3628 7.47227 43.2215C7.03477 42.7746 6.62539 41.9246 7.03477 41.4465C11.316 36.8933 20.1316 27.9933 25.6441 22.5527C25.9566 22.9652 26.3004 23.359 26.6691 23.7277C27.0379 24.1121 27.4348 24.4683 27.8566 24.7933C22.5254 30.2621 13.8285 39.0558 9.16602 43.5246ZM43.9098 15.1965C43.916 17.5871 42.9848 19.884 41.3098 21.5965C39.6383 23.2361 37.3903 24.1547 35.0488 24.1547C32.7074 24.1547 30.4594 23.2361 28.7879 21.5965C27.5628 20.318 26.726 18.718 26.3747 16.9825C26.0234 15.2471 26.1721 13.4476 26.8035 11.7933C27.2238 10.6675 27.8757 9.64242 28.7171 8.78437C29.5584 7.92632 30.5705 7.25441 31.6879 6.81209C32.7488 6.36805 33.8878 6.14067 35.0379 6.14334H35.8316L30.1535 11.9965V14.1715L36.0754 20.0652H38.1379L43.9098 14.3902V15.1965ZM10.1254 20.8996H14.9098L17.1129 23.1402L19.2316 21.034L17.1535 18.9152V18.7808L17.3316 13.6277L16.6441 12.2621L7.70664 6.38084L5.85977 6.58709L3.26289 9.24021L3.05664 11.1121L8.80039 20.2308L10.1254 20.8996ZM7.17227 9.54959L14.4035 14.3121L14.2816 17.8215H10.9191L6.25664 10.4402L7.17227 9.54959ZM29.3754 31.2996L31.4816 29.1965L41.1879 39.1496C42.0055 40.0088 42.4614 41.1495 42.4614 42.3355C42.4614 43.5216 42.0055 44.6622 41.1879 45.5215C40.5732 46.1526 39.7826 46.584 38.9193 46.7596C38.0559 46.9352 37.1597 46.8467 36.3473 46.5058C35.8288 46.2759 35.3637 45.9407 34.9816 45.5215L25.1629 35.5121L27.2848 33.3933L37.0723 43.3746C37.2039 43.5198 37.3676 43.6321 37.5504 43.7027C37.9101 43.8488 38.3126 43.8488 38.6723 43.7027C38.855 43.632 39.0187 43.5197 39.1504 43.3746C39.2872 43.2391 39.3937 43.0761 39.4629 42.8965C39.5346 42.7131 39.5727 42.5183 39.5754 42.3215C39.5723 42.1249 39.5353 41.9304 39.466 41.7465C39.3968 41.5668 39.2903 41.4038 39.1535 41.2683L29.3754 31.2996Z" fill="#CB0000"/>
</g>
</svg>
