<svg width="50" height="50" viewBox="0 0 50 50" fill="none" xmlns="http://www.w3.org/2000/svg">
<rect width="50" height="50" fill="#1E1E1E"/>
<g id="Frame" clip-path="url(#clip0_321_3899)">
<rect width="1440" height="3337" transform="translate(-676 -1474)" fill="white"/>
<g id="Frame 4" clip-path="url(#clip1_321_3899)">
<g id="Group 8">
<g id="mingcute:time-line" clip-path="url(#clip2_321_3899)">
<g id="Group">
<path id="Vector" d="M25.0003 4.16699C36.5066 4.16699 45.8337 13.4941 45.8337 25.0003C45.8337 36.5066 36.5066 45.8337 25.0003 45.8337C13.4941 45.8337 4.16699 36.5066 4.16699 25.0003C4.16699 13.4941 13.4941 4.16699 25.0003 4.16699ZM25.0003 8.33366C20.5801 8.33366 16.3408 10.0896 13.2152 13.2152C10.0896 16.3408 8.33366 20.5801 8.33366 25.0003C8.33366 29.4206 10.0896 33.6598 13.2152 36.7854C16.3408 39.911 20.5801 41.667 25.0003 41.667C29.4206 41.667 33.6598 39.911 36.7854 36.7854C39.911 33.6598 41.667 29.4206 41.667 25.0003C41.667 20.5801 39.911 16.3408 36.7854 13.2152C33.6598 10.0896 29.4206 8.33366 25.0003 8.33366ZM25.0003 12.5003C25.5106 12.5004 26.0031 12.6877 26.3844 13.0268C26.7658 13.3659 27.0094 13.8331 27.0691 14.3399L27.0837 14.5837V24.1378L32.7232 29.7774C33.0969 30.1523 33.3138 30.6554 33.33 31.1845C33.3461 31.7135 33.1603 32.2289 32.8102 32.6259C32.4602 33.0229 31.9721 33.2718 31.4452 33.322C30.9183 33.3722 30.392 33.2199 29.9732 32.8962L29.7774 32.7232L23.5274 26.4732C23.2036 26.1492 22.9957 25.7274 22.9357 25.2732L22.917 25.0003V14.5837C22.917 14.0311 23.1365 13.5012 23.5272 13.1105C23.9179 12.7198 24.4478 12.5003 25.0003 12.5003Z" fill="#CB0000"/>
</g>
</g>
</g>
</g>
</g>
<defs>
<clipPath id="clip0_321_3899">
<rect width="1440" height="3337" fill="white" transform="translate(-676 -1474)"/>
</clipPath>
<clipPath id="clip1_321_3899">
<rect width="1440" height="610" fill="white" transform="translate(-676 -220)"/>
</clipPath>
<clipPath id="clip2_321_3899">
<rect width="50" height="50" fill="white"/>
</clipPath>
</defs>
</svg>
