<svg width="50" height="50" viewBox="0 0 50 50" fill="none" xmlns="http://www.w3.org/2000/svg">
<g id="fluent-mdl2:car" clip-path="url(#clip0_331_4039)">
<path id="Vector" d="M9.37508 28.125C9.81454 28.125 10.2214 28.2064 10.5958 28.3691C10.9701 28.5319 11.2957 28.7516 11.5723 29.0283C11.849 29.305 12.0769 29.6387 12.2559 30.0293C12.435 30.4199 12.5164 30.8268 12.5001 31.25C12.5001 31.6895 12.4187 32.0964 12.2559 32.4707C12.0932 32.8451 11.8735 33.1706 11.5968 33.4473C11.3201 33.724 10.9864 33.9518 10.5958 34.1309C10.2052 34.3099 9.79826 34.3913 9.37508 34.375C8.93563 34.375 8.52873 34.2936 8.15438 34.1309C7.78003 33.9681 7.45451 33.7484 7.17782 33.4717C6.90112 33.195 6.67326 32.8613 6.49422 32.4707C6.31519 32.0801 6.23381 31.6732 6.25008 31.25C6.25008 30.8105 6.33146 30.4036 6.49422 30.0293C6.65698 29.6549 6.87671 29.3294 7.1534 29.0527C7.43009 28.776 7.76375 28.5482 8.15438 28.3691C8.545 28.1901 8.9519 28.1087 9.37508 28.125ZM40.6251 28.125C41.0645 28.125 41.4714 28.2064 41.8458 28.3691C42.2201 28.5319 42.5457 28.7516 42.8223 29.0283C43.099 29.305 43.3269 29.6387 43.5059 30.0293C43.685 30.4199 43.7664 30.8268 43.7501 31.25C43.7501 31.6895 43.6687 32.0964 43.5059 32.4707C43.3432 32.8451 43.1235 33.1706 42.8468 33.4473C42.5701 33.724 42.2364 33.9518 41.8458 34.1309C41.4552 34.3099 41.0483 34.3913 40.6251 34.375C40.1856 34.375 39.7787 34.2936 39.4044 34.1309C39.03 33.9681 38.7045 33.7484 38.4278 33.4717C38.1511 33.195 37.9233 32.8613 37.7442 32.4707C37.5652 32.0801 37.4838 31.6732 37.5001 31.25C37.5001 30.8105 37.5815 30.4036 37.7442 30.0293C37.907 29.6549 38.1267 29.3294 38.4034 29.0527C38.6801 28.776 39.0138 28.5482 39.4044 28.3691C39.795 28.1901 40.2019 28.1087 40.6251 28.125ZM49.0968 21.875L47.4854 23.4619C47.518 23.5433 47.5994 23.7874 47.7296 24.1943C47.8598 24.6012 48.0144 25.0814 48.1934 25.6348C48.3725 26.1882 48.5759 26.7822 48.8038 27.417C49.0317 28.0518 49.227 28.6296 49.3897 29.1504C49.5525 29.6712 49.699 30.1107 49.8292 30.4687C49.9594 30.8268 50.0164 31.0059 50.0001 31.0059V46.875C50.0001 47.3144 49.9187 47.7214 49.7559 48.0957C49.5932 48.4701 49.3735 48.7956 49.0968 49.0723C48.8201 49.349 48.4864 49.5768 48.0958 49.7559C47.7052 49.9349 47.2983 50.0163 46.8751 50H43.7501C43.3106 50 42.9037 49.9186 42.5294 49.7559C42.155 49.5931 41.8295 49.3734 41.5528 49.0967C41.2761 48.82 41.0483 48.4863 40.8692 48.0957C40.6902 47.7051 40.6088 47.2982 40.6251 46.875H9.37508C9.37508 47.3144 9.2937 47.7214 9.13094 48.0957C8.96818 48.4701 8.74845 48.7956 8.47176 49.0723C8.19507 49.349 7.86141 49.5768 7.47078 49.7559C7.08016 49.9349 6.67326 50.0163 6.25008 50H3.12508C2.68563 50 2.27873 49.9186 1.90438 49.7559C1.53003 49.5931 1.20451 49.3734 0.927816 49.0967C0.651123 48.82 0.423258 48.4863 0.244222 48.0957C0.0651855 47.7051 -0.0161947 47.2982 8.13804e-05 46.875V31.0059L0.17098 30.4932L0.610433 29.1748L1.19637 27.417C1.40796 26.7822 1.60327 26.1882 1.78231 25.6348C1.96134 25.0814 2.1241 24.6012 2.27059 24.1943C2.41707 23.7874 2.49845 23.5433 2.51473 23.4619L0.903402 21.875H8.13804e-05V18.75H2.22176L3.61336 20.166L5.42 14.7217C5.68042 13.9242 6.05477 13.1999 6.54305 12.5488C7.03133 11.8978 7.60913 11.3363 8.27645 10.8643C8.94377 10.3923 9.65177 10.026 10.4005 9.76562C11.1492 9.50521 11.963 9.375 12.8419 9.375H37.1583C38.0046 9.375 38.8103 9.50521 39.5753 9.76562C40.3403 10.026 41.0564 10.3841 41.7237 10.8398C42.391 11.2956 42.9607 11.8571 43.4327 12.5244C43.9047 13.1917 44.2872 13.9242 44.5802 14.7217L46.3868 20.166L47.7784 18.75H50.0001V21.875H49.0968ZM12.8419 12.5C11.8165 12.5 10.905 12.793 10.1075 13.3789C9.30998 13.9648 8.74032 14.738 8.39852 15.6982L6.32332 21.875H43.6768L41.6016 15.6982C41.2761 14.738 40.7146 13.9648 39.9171 13.3789C39.1195 12.793 38.2 12.5 37.1583 12.5H12.8419ZM34.3751 42.5537L31.836 37.5H18.1641L15.6251 42.5537V43.75H34.3751V42.5537ZM46.8751 43.75V31.4941L46.7286 31.0547C46.6309 30.7617 46.5089 30.3792 46.3624 29.9072C46.2159 29.4352 46.045 28.9388 45.8497 28.418C45.6544 27.8971 45.4835 27.3844 45.337 26.8799C45.1905 26.3753 45.0522 25.9603 44.922 25.6348C44.7917 25.3092 44.7185 25.0977 44.7022 25H5.29793C5.26538 25.0814 5.19214 25.293 5.07821 25.6348C4.96427 25.9766 4.82593 26.3835 4.66317 26.8555C4.50041 27.3275 4.32951 27.8402 4.15047 28.3936C3.97144 28.9469 3.80868 29.4515 3.66219 29.9072C3.51571 30.363 3.3855 30.7373 3.27157 31.0303C3.15763 31.3232 3.10881 31.4779 3.12508 31.4941V43.75H12.5001V41.8213L16.211 34.375H33.7891L37.5001 41.8213V43.75H46.8751Z" fill="#CB0000"/>
</g>
<defs>
<clipPath id="clip0_331_4039">
<rect width="50" height="50" fill="white"/>
</clipPath>
</defs>
</svg>
