<svg width="50" height="50" viewBox="0 0 50 50" fill="none" xmlns="http://www.w3.org/2000/svg">
<g id="ep:document">
<path id="Vector" d="M40.625 18.75H28.125V6.25H9.375V43.75H40.625V18.75ZM39.3313 15.625L31.25 7.54375V15.625H39.3313ZM7.8125 3.125H31.25L43.75 15.625V45.3125C43.75 45.7269 43.5854 46.1243 43.2924 46.4174C42.9993 46.7104 42.6019 46.875 42.1875 46.875H7.8125C7.3981 46.875 7.00067 46.7104 6.70765 46.4174C6.41462 46.1243 6.25 45.7269 6.25 45.3125V4.6875C6.25 4.2731 6.41462 3.87567 6.70765 3.58265C7.00067 3.28962 7.3981 3.125 7.8125 3.125ZM15.625 25H34.375V28.125H15.625V25ZM15.625 15.625H23.4375V18.75H15.625V15.625ZM15.625 34.375H34.375V37.5H15.625V34.375Z" fill="#CB0000"/>
</g>
</svg>
