<svg width="40" height="40" viewBox="0 0 40 40" fill="none" xmlns="http://www.w3.org/2000/svg">
<g id="mdi:instagram">
<path id="Vector" d="M12.9997 3.33301H26.9997C32.333 3.33301 36.6663 7.66634 36.6663 12.9997V26.9997C36.6663 29.5634 35.6479 32.0222 33.835 33.835C32.0222 35.6479 29.5634 36.6663 26.9997 36.6663H12.9997C7.66634 36.6663 3.33301 32.333 3.33301 26.9997V12.9997C3.33301 10.4359 4.35146 7.97716 6.16431 6.16431C7.97716 4.35146 10.4359 3.33301 12.9997 3.33301ZM12.6663 6.66634C11.075 6.66634 9.54892 7.29848 8.4237 8.4237C7.29848 9.54892 6.66634 11.075 6.66634 12.6663V27.333C6.66634 30.6497 9.34967 33.333 12.6663 33.333H27.333C28.9243 33.333 30.4504 32.7009 31.5756 31.5756C32.7009 30.4504 33.333 28.9243 33.333 27.333V12.6663C33.333 9.34967 30.6497 6.66634 27.333 6.66634H12.6663ZM28.7497 9.16634C29.3022 9.16634 29.8321 9.38583 30.2228 9.77654C30.6135 10.1672 30.833 10.6971 30.833 11.2497C30.833 11.8022 30.6135 12.3321 30.2228 12.7228C29.8321 13.1135 29.3022 13.333 28.7497 13.333C28.1971 13.333 27.6672 13.1135 27.2765 12.7228C26.8858 12.3321 26.6663 11.8022 26.6663 11.2497C26.6663 10.6971 26.8858 10.1672 27.2765 9.77654C27.6672 9.38583 28.1971 9.16634 28.7497 9.16634ZM19.9997 11.6663C22.2098 11.6663 24.3294 12.5443 25.8922 14.1071C27.455 15.6699 28.333 17.7895 28.333 19.9997C28.333 22.2098 27.455 24.3294 25.8922 25.8922C24.3294 27.455 22.2098 28.333 19.9997 28.333C17.7895 28.333 15.6699 27.455 14.1071 25.8922C12.5443 24.3294 11.6663 22.2098 11.6663 19.9997C11.6663 17.7895 12.5443 15.6699 14.1071 14.1071C15.6699 12.5443 17.7895 11.6663 19.9997 11.6663ZM19.9997 14.9997C18.6736 14.9997 17.4018 15.5265 16.4641 16.4641C15.5265 17.4018 14.9997 18.6736 14.9997 19.9997C14.9997 21.3258 15.5265 22.5975 16.4641 23.5352C17.4018 24.4729 18.6736 24.9997 19.9997 24.9997C21.3258 24.9997 22.5975 24.4729 23.5352 23.5352C24.4729 22.5975 24.9997 21.3258 24.9997 19.9997C24.9997 18.6736 24.4729 17.4018 23.5352 16.4641C22.5975 15.5265 21.3258 14.9997 19.9997 14.9997Z" fill="#CB0000"/>
</g>
</svg>
