<svg width="248" height="50" viewBox="0 0 248 50" fill="none" xmlns="http://www.w3.org/2000/svg">
<path d="M81.4604 40.4C79.3338 40.4 77.3534 40.0533 75.5193 39.36C73.7117 38.64 72.1301 37.64 70.7744 36.36C69.4453 35.0533 68.4086 33.52 67.6643 31.76C66.92 30 66.5479 28.08 66.5479 26C66.5479 23.92 66.92 22 67.6643 20.24C68.4086 18.48 69.4586 16.96 70.8143 15.68C72.1699 14.3733 73.7516 13.3733 75.5592 12.68C77.3667 11.96 79.3471 11.6 81.5002 11.6C83.7863 11.6 85.873 12 87.7603 12.8C89.6476 13.5733 91.2426 14.7333 92.5451 16.28L89.1957 19.44C88.1856 18.3466 87.0559 17.5333 85.8065 17C84.5572 16.44 83.2015 16.16 81.7395 16.16C80.2775 16.16 78.9351 16.4 77.7123 16.88C76.5161 17.36 75.4661 18.04 74.5623 18.92C73.6851 19.8 72.994 20.84 72.4889 22.04C72.0105 23.24 71.7712 24.56 71.7712 26C71.7712 27.44 72.0105 28.76 72.4889 29.96C72.994 31.16 73.6851 32.2 74.5623 33.08C75.4661 33.96 76.5161 34.64 77.7123 35.12C78.9351 35.6 80.2775 35.84 81.7395 35.84C83.2015 35.84 84.5572 35.5733 85.8065 35.04C87.0559 34.48 88.1856 33.64 89.1957 32.52L92.5451 35.72C91.2426 37.24 89.6476 38.4 87.7603 39.2C85.873 40 83.773 40.4 81.4604 40.4Z" fill="#D50000"/>
<path d="M109.957 40V35.68L109.678 34.76V27.2C109.678 25.7333 109.239 24.6 108.362 23.8C107.485 22.9733 106.156 22.56 104.375 22.56C103.178 22.56 101.995 22.7466 100.826 23.12C99.6829 23.4933 98.7126 24.0133 97.9152 24.68L95.9614 21.04C97.1044 20.16 98.4601 19.5066 100.028 19.08C101.623 18.6266 103.271 18.4 104.973 18.4C108.056 18.4 110.435 19.1466 112.11 20.64C113.811 22.1066 114.662 24.3866 114.662 27.48V40H109.957ZM103.258 40.28C101.663 40.28 100.268 40.0133 99.0715 39.48C97.8753 38.92 96.9449 38.16 96.2804 37.2C95.6424 36.2133 95.3234 35.1066 95.3234 33.88C95.3234 32.68 95.6025 31.6 96.1607 30.64C96.7456 29.68 97.6892 28.92 98.9917 28.36C100.294 27.8 102.022 27.52 104.175 27.52H110.356V30.84H104.534C102.833 30.84 101.69 31.12 101.105 31.68C100.52 32.2133 100.228 32.88 100.228 33.68C100.228 34.5866 100.587 35.3066 101.304 35.84C102.022 36.3733 103.019 36.64 104.295 36.64C105.518 36.64 106.607 36.36 107.564 35.8C108.548 35.24 109.252 34.4133 109.678 33.32L110.515 36.32C110.037 37.5733 109.173 38.5466 107.923 39.24C106.701 39.9333 105.145 40.28 103.258 40.28Z" fill="#D50000"/>
<path d="M121.058 40V18.64H125.803V24.52L125.245 22.8C125.883 21.36 126.88 20.2666 128.235 19.52C129.618 18.7733 131.332 18.4 133.379 18.4V23.16C133.166 23.1066 132.967 23.08 132.781 23.08C132.595 23.0533 132.409 23.04 132.223 23.04C130.335 23.04 128.834 23.6 127.717 24.72C126.601 25.8133 126.042 27.4533 126.042 29.64V40H121.058Z" fill="#D50000"/>
<path d="M143.982 39.9999V16.3999H134.731V11.9999H158.416V16.3999H149.165V39.9999H143.982Z" fill="#121212"/>
<path d="M161.321 39.9999V18.6399H166.066V24.5199L165.508 22.7999C166.146 21.3599 167.143 20.2666 168.499 19.5199C169.881 18.7733 171.595 18.3999 173.642 18.3999V23.1599C173.43 23.1066 173.23 23.0799 173.044 23.0799C172.858 23.0533 172.672 23.0399 172.486 23.0399C170.599 23.0399 169.097 23.5999 167.98 24.7199C166.864 25.8133 166.306 27.4533 166.306 29.6399V39.9999H161.321Z" fill="#121212"/>
<path d="M189.47 39.9999V35.6799L189.191 34.7599V27.1999C189.191 25.7333 188.752 24.5999 187.875 23.7999C186.998 22.9733 185.669 22.5599 183.888 22.5599C182.692 22.5599 181.509 22.7466 180.339 23.1199C179.196 23.4933 178.226 24.0133 177.428 24.6799L175.475 21.0399C176.618 20.1599 177.973 19.5066 179.542 19.0799C181.136 18.6266 182.785 18.3999 184.486 18.3999C187.569 18.3999 189.948 19.1466 191.623 20.6399C193.324 22.1066 194.175 24.3866 194.175 27.4799V39.9999H189.47ZM182.771 40.2799C181.176 40.2799 179.781 40.0133 178.585 39.4799C177.388 38.9199 176.458 38.1599 175.794 37.1999C175.156 36.2133 174.837 35.1066 174.837 33.8799C174.837 32.6799 175.116 31.5999 175.674 30.6399C176.259 29.6799 177.202 28.9199 178.505 28.3599C179.807 27.7999 181.535 27.5199 183.688 27.5199H189.869V30.8399H184.047C182.346 30.8399 181.203 31.1199 180.618 31.6799C180.033 32.2133 179.741 32.8799 179.741 33.6799C179.741 34.5866 180.1 35.3066 180.818 35.8399C181.535 36.3733 182.532 36.6399 183.808 36.6399C185.031 36.6399 186.121 36.3599 187.078 35.7999C188.061 35.2399 188.766 34.4133 189.191 33.3199L190.028 36.3199C189.55 37.5733 188.686 38.5466 187.436 39.2399C186.214 39.9333 184.659 40.2799 182.771 40.2799Z" fill="#121212"/>
<path d="M209.622 40.2799C207.575 40.2799 205.727 39.8266 204.079 38.9199C202.458 37.9866 201.182 36.7066 200.252 35.0799C199.321 33.4533 198.856 31.5333 198.856 29.3199C198.856 27.1066 199.321 25.1866 200.252 23.5599C201.182 21.9333 202.458 20.6666 204.079 19.7599C205.727 18.8533 207.575 18.3999 209.622 18.3999C211.403 18.3999 212.998 18.7999 214.406 19.5999C215.815 20.3733 216.932 21.5599 217.756 23.1599C218.58 24.7599 218.992 26.8133 218.992 29.3199C218.992 31.7999 218.593 33.8533 217.796 35.4799C216.998 37.0799 215.895 38.2799 214.486 39.0799C213.077 39.8799 211.456 40.2799 209.622 40.2799ZM210.22 35.9999C211.416 35.9999 212.479 35.7333 213.41 35.1999C214.367 34.6666 215.124 33.8933 215.682 32.8799C216.267 31.8666 216.56 30.6799 216.56 29.3199C216.56 27.9333 216.267 26.7466 215.682 25.7599C215.124 24.7466 214.367 23.9733 213.41 23.4399C212.479 22.9066 211.416 22.6399 210.22 22.6399C209.024 22.6399 207.947 22.9066 206.99 23.4399C206.06 23.9733 205.302 24.7466 204.717 25.7599C204.159 26.7466 203.88 27.9333 203.88 29.3199C203.88 30.6799 204.159 31.8666 204.717 32.8799C205.302 33.8933 206.06 34.6666 206.99 35.1999C207.947 35.7333 209.024 35.9999 210.22 35.9999ZM216.679 39.9999V34.9599L216.879 29.2799L216.48 23.5999V10.3199H221.424V39.9999H216.679Z" fill="#121212"/>
<path d="M237.992 40.2799C235.627 40.2799 233.553 39.8133 231.772 38.8799C230.018 37.9199 228.649 36.6133 227.665 34.9599C226.708 33.3066 226.23 31.4266 226.23 29.3199C226.23 27.1866 226.695 25.3066 227.625 23.6799C228.582 22.0266 229.885 20.7333 231.533 19.7999C233.208 18.8666 235.108 18.3999 237.235 18.3999C239.308 18.3999 241.156 18.8533 242.777 19.7599C244.399 20.6666 245.675 21.9466 246.605 23.5999C247.535 25.2533 248 27.1999 248 29.4399C248 29.6533 247.987 29.8933 247.961 30.1599C247.961 30.4266 247.947 30.6799 247.921 30.9199H230.177V27.5999H245.289L243.335 28.6399C243.362 27.4133 243.109 26.3333 242.578 25.3999C242.046 24.4666 241.315 23.7333 240.385 23.1999C239.481 22.6666 238.431 22.3999 237.235 22.3999C236.012 22.3999 234.935 22.6666 234.005 23.1999C233.101 23.7333 232.384 24.4799 231.852 25.4399C231.347 26.3733 231.094 27.4799 231.094 28.7599V29.5599C231.094 30.8399 231.387 31.9733 231.971 32.9599C232.556 33.9466 233.38 34.7066 234.444 35.2399C235.507 35.7733 236.73 36.0399 238.112 36.0399C239.308 36.0399 240.385 35.8533 241.342 35.4799C242.299 35.1066 243.149 34.5199 243.894 33.7199L246.565 36.7999C245.608 37.9199 244.399 38.7866 242.937 39.3999C241.501 39.9866 239.853 40.2799 237.992 40.2799Z" fill="#121212"/>
<ellipse cx="24.9206" cy="25" rx="24.9206" ry="25" fill="#CB0000"/>
<g clip-path="url(#clip0_596_805)">
<path d="M42.6389 34.4851C42.5968 34.7734 42.5267 35.0546 42.4216 35.2726C42.2323 35.6593 42.0501 35.6945 41.3352 35.6593C40.41 35.6171 39.0853 35.6593 37.6835 35.7156C37.6835 36.1023 37.6976 36.2851 37.6976 36.2851C37.7887 37.3468 38.2653 37.382 38.4545 37.382H41.4684C41.7347 37.382 41.98 37.382 42.1693 37.2554C42.4146 37.0937 42.5197 36.6226 42.6108 35.8C42.6248 35.6804 42.6318 35.5257 42.6389 35.3429V35.3359C42.6389 35.2796 42.6459 35.2093 42.6459 35.132V35.0546C42.6459 34.8648 42.6459 34.6539 42.6389 34.4851ZM7.18767 34.4851C7.22973 34.7734 7.29982 35.0546 7.40495 35.2726C7.59419 35.6593 7.77642 35.6945 8.49133 35.6593C9.41651 35.6171 10.7412 35.6593 12.143 35.7156C12.143 36.1023 12.129 36.2851 12.129 36.2851C12.0379 37.3468 11.5612 37.382 11.372 37.382H8.35816C8.09183 37.382 7.86754 37.382 7.65727 37.2554C7.40495 37.1078 7.30682 36.6226 7.21571 35.8C7.20169 35.6804 7.19468 35.5257 7.18767 35.3429V35.3359C7.18767 35.2796 7.18066 35.2093 7.18066 35.132V35.0546C7.18767 34.8648 7.18767 34.6539 7.18767 34.4851Z" fill="white"/>
<path d="M42.8633 27.8547C42.8633 25.6961 42.5829 23.5867 42.4708 23.3547C42.3867 23.1859 41.847 22.7429 40.6204 21.9062C39.3798 21.0554 39.4079 21.182 39.1836 20.6265C39.3868 20.5633 39.5831 20.4437 39.7022 20.4297C39.9686 20.4015 39.9826 20.6547 40.5363 20.6547C41.09 20.6547 42.2885 20.507 42.5338 20.2609C42.7792 20.0148 42.8563 19.9304 42.8563 19.7125C42.8563 19.4945 42.7301 19.0445 42.4918 18.7773C42.2535 18.5101 41.2372 18.3765 40.6414 18.2992C40.0457 18.2219 39.9616 18.2992 39.8074 18.3976C39.5621 18.5523 39.548 19.9656 39.548 19.9656L38.9663 19.9797C38.5878 19.0445 38.0622 17.1601 37.2421 15.6765C36.345 14.0594 35.4058 13.5531 35.0133 13.4265C34.6278 13.307 34.2773 13.2226 31.649 12.9554C28.9646 12.6742 26.8268 12.639 24.9204 12.639C23.014 12.639 20.8763 12.6812 18.1918 12.9554C15.5635 13.2297 15.213 13.307 14.8275 13.4265C14.4421 13.5461 13.4958 14.0594 12.5987 15.6765C11.7787 17.1601 11.253 19.0445 10.8745 19.9797L10.2928 19.9656C10.2928 19.9656 10.2858 18.5523 10.0334 18.3976C9.87924 18.2992 9.79513 18.2148 9.19937 18.2992C8.60361 18.3836 7.58732 18.5101 7.34901 18.7773C7.11071 19.0445 6.98455 19.4945 6.98455 19.7125C6.98455 19.9304 7.06165 20.0219 7.30696 20.2609C7.55227 20.507 8.7508 20.6547 9.3045 20.6547C9.85821 20.6547 9.87223 20.4015 10.1386 20.4297C10.2577 20.4437 10.461 20.5633 10.6572 20.6265C10.4259 21.182 10.461 21.0554 9.2204 21.9062C7.99383 22.75 7.44714 23.1859 7.37004 23.3547C7.2579 23.5867 6.97754 25.6961 6.97754 27.8547C6.97754 30.0133 7.13174 31.9539 7.13174 32.6429C7.13174 32.9312 7.13174 33.4375 7.19482 33.9226C7.23687 34.2109 7.29995 34.4922 7.41209 34.7101C7.60133 35.0969 7.77656 35.132 8.49848 35.0969C9.42366 35.0547 10.7624 35.0969 12.1431 35.1531C13.0683 35.1883 14.0145 35.2234 14.8556 35.2445C16.9583 35.2867 16.3415 34.9351 17.2386 34.9492C18.1358 34.9633 21.6753 35.1109 24.9134 35.1109C28.1515 35.1109 31.698 34.9633 32.5882 34.9492C33.4853 34.9351 32.8685 35.2867 34.9712 35.2445C35.8123 35.2304 36.7585 35.1883 37.6837 35.1531C39.0644 35.1039 40.4101 35.0547 41.3283 35.0969C42.0502 35.132 42.2255 35.0969 42.4147 34.7101C42.5198 34.4922 42.5899 34.2109 42.632 33.9226C42.7021 33.4375 42.6951 32.9312 42.6951 32.6429C42.7091 31.9609 42.8633 30.0133 42.8633 27.8547ZM13.0192 17.2094C13.3557 16.4219 14.365 14.8398 14.8556 14.5586C14.9747 14.4883 16.0191 14.1578 18.6334 13.982C21.0375 13.8203 23.6938 13.757 24.9274 13.757C26.161 13.757 28.8174 13.8203 31.2214 13.982C33.8288 14.1578 34.8871 14.4812 34.9992 14.5586C35.6301 14.9945 36.4992 16.4219 36.8356 17.2094C37.172 17.9969 37.6206 19.5437 37.5365 19.7547C37.4524 19.9656 37.6206 20.0711 36.4851 19.9797C35.3567 19.8953 28.2707 19.8039 24.9344 19.8039C21.6052 19.8039 14.5191 19.8953 13.3837 19.9797C12.2483 20.064 12.4165 19.9656 12.3324 19.7547C12.2342 19.5437 12.6828 18.0039 13.0192 17.2094ZM15.5985 26.0125C15.0939 26.139 14.7925 26.4133 14.1617 26.4062C13.5309 26.4062 11.8277 26.1179 11.4633 26.1039C11.0988 26.0898 10.7764 26.35 10.5871 26.3992C10.3979 26.4484 10.0264 26.3148 9.46571 26.139C8.905 25.9633 8.57558 26.0125 8.39334 25.2461C8.2041 24.4867 8.39334 23.3969 8.39334 23.3969C9.60589 23.3406 10.7764 23.4531 12.9702 24.0719C15.164 24.6906 16.3835 25.8789 16.3835 25.8789C16.3835 25.8789 16.1032 25.8859 15.5985 26.0125ZM32.0835 31.5531C31.0813 31.6867 26.8829 31.7219 24.9204 31.7219C22.9579 31.7219 18.7596 31.6797 17.7573 31.5531C16.734 31.4195 15.4023 30.189 16.3204 29.2117C17.561 27.8828 17.3297 27.925 20.1473 27.5594C22.5864 27.2429 24.4368 27.2289 24.9204 27.2289C25.397 27.2289 27.2544 27.25 29.6935 27.5594C32.5111 27.925 32.2798 27.8828 33.5204 29.2117C34.4385 30.189 33.1068 31.4195 32.0835 31.5531ZM41.4475 25.2531C41.2582 26.0125 40.9358 25.9703 40.3751 26.1461C39.8144 26.3218 39.4429 26.4484 39.2537 26.4062C39.0644 26.364 38.742 26.1039 38.3776 26.1109C38.0131 26.125 36.3099 26.4133 35.6791 26.4133C35.0483 26.4133 34.7469 26.1461 34.2423 26.0195C33.7376 25.8929 33.4573 25.8929 33.4573 25.8929C33.4573 25.8929 34.6698 24.6976 36.8706 24.0859C39.0644 23.4672 40.2349 23.3547 41.4475 23.4109C41.4475 23.3969 41.6367 24.4867 41.4475 25.2531Z" fill="white"/>
</g>
<defs>
<clipPath id="clip0_596_805">
<rect width="35.8857" height="36" fill="white" transform="translate(6.97754 7)"/>
</clipPath>
</defs>
</svg>
