<svg width="100" height="100" viewBox="0 0 100 100" fill="none" xmlns="http://www.w3.org/2000/svg">
<g clip-path="url(#clip0_331_3985)">
<path d="M81.095 9.715C84.36 12.275 86.61 16.41 87.53 20.74C87.6414 20.7753 87.75 20.8187 87.855 20.87L98.08 25.6C98.6515 25.8624 99.136 26.283 99.4762 26.8119C99.8165 27.3408 99.9982 27.9561 100 28.585V90.42C99.9963 90.9337 99.8737 91.4395 99.6418 91.8978C99.4098 92.3561 99.0748 92.7544 98.6631 93.0615C98.2513 93.3687 97.774 93.5762 97.2686 93.6679C96.7632 93.7596 96.2434 93.7329 95.75 93.59L67.405 85.59L33.705 94.88C33.097 95.047 32.4543 95.0401 31.85 94.86L2.37 86.085C1.6886 85.8849 1.08995 85.4703 0.662977 84.9028C0.236005 84.3353 0.0034983 83.6452 0 82.935L0 19.99C0 17.79 2.14 16.21 4.275 16.83L32.785 25.135L47.275 20.7C47.4744 20.6411 47.6785 20.5993 47.885 20.575C48.445 17.295 50.01 14.145 52.635 11.075C55.75 7.425 61.215 5.285 66.54 5.03C72.065 4.765 76.285 5.945 81.09 9.71L81.095 9.715ZM6.665 24.405V80.48L31.015 87.725V31.49L6.665 24.405ZM47.71 27.475L37.68 30.54V86.935L63.005 79.965V63.49C63.005 61.67 64.5 60.195 66.34 60.195C68.18 60.195 69.67 61.67 69.67 63.495V79.38L93.335 86.055V30.68L87.735 28.08C87.64 28.63 87.52 29.17 87.37 29.695C86.2827 33.5288 84.4587 37.1139 82 40.25L69.615 55.715C69.2889 56.1216 68.8724 56.4465 68.3987 56.6639C67.925 56.8813 67.4071 56.9851 66.8861 56.9672C66.3652 56.9492 65.8557 56.8099 65.398 56.5604C64.9404 56.311 64.5473 55.9581 64.25 55.53L52.675 38.765C50.765 36.095 49.425 33.715 48.67 31.585C48.1961 30.2556 47.874 28.8768 47.71 27.475ZM66.86 11.62C63.23 11.795 59.5 13.255 57.725 15.33C55.59 17.83 54.54 20.17 54.33 22.54C54.08 25.395 54.25 27.41 54.96 29.405C55.485 30.88 56.53 32.75 58.145 35.005L67.2 48.115L76.75 36.19C78.6766 33.7278 80.1049 30.9136 80.955 27.905C82.155 23.705 80.345 17.535 76.955 14.885C73.48 12.16 70.855 11.425 66.865 11.62H66.86ZM67.55 15.105C73.07 15.105 77.55 19.53 77.55 24.99C77.5428 26.2958 77.2784 27.5873 76.7719 28.7909C76.2654 29.9944 75.5267 31.0864 74.598 32.0044C73.6694 32.9223 72.5689 33.6483 71.3596 34.1409C70.1503 34.6334 68.8558 34.8829 67.55 34.875C62.03 34.875 57.55 30.45 57.55 24.99C57.55 19.53 62.03 15.105 67.55 15.105ZM67.55 21.695C67.1147 21.6924 66.6831 21.7755 66.2799 21.9397C65.8767 22.1038 65.5098 22.3458 65.2001 22.6518C64.8904 22.9578 64.644 23.3217 64.475 23.7229C64.306 24.1241 64.2176 24.5547 64.215 24.99C64.215 26.81 65.71 28.285 67.55 28.285C67.9853 28.287 68.4168 28.2032 68.8197 28.0384C69.2227 27.8736 69.5892 27.6311 69.8985 27.3247C70.2077 27.0182 70.4535 26.6539 70.6219 26.2525C70.7903 25.851 70.878 25.4203 70.88 24.985C70.8734 24.1075 70.5192 23.2685 69.895 22.6518C69.2707 22.0351 68.4275 21.691 67.55 21.695Z" fill="#CB0000"/>
</g>
<defs>
<clipPath id="clip0_331_3985">
<rect width="100" height="100" fill="white"/>
</clipPath>
</defs>
</svg>
