<svg width="100" height="100" viewBox="0 0 100 100" fill="none" xmlns="http://www.w3.org/2000/svg">
<path d="M46.7815 85.1328C46.6126 85.8089 46.2224 86.409 45.6732 86.838C45.124 87.2669 44.4472 87.4999 43.7503 87.5C43.487 87.5013 43.2246 87.4698 42.969 87.4062L30.469 84.2812C30.121 84.1939 29.7907 84.0472 29.4925 83.8477L20.1175 77.5977C19.428 77.1377 18.9495 76.4226 18.7873 75.6099C18.625 74.7971 18.7923 73.9531 19.2523 73.2637C19.7122 72.5742 20.4273 72.0957 21.24 71.9335C22.0528 71.7712 22.8968 71.9385 23.5862 72.3984L32.5081 78.3477L44.4847 81.3438C44.8848 81.4408 45.2619 81.6159 45.5941 81.8591C45.9264 82.1023 46.2073 82.4087 46.4207 82.7608C46.6342 83.1129 46.7759 83.5038 46.8378 83.9108C46.8998 84.3179 46.8806 84.7332 46.7815 85.1328ZM98.6136 47.4531C98.3572 48.232 97.949 48.9523 97.4126 49.5725C96.8762 50.1926 96.2223 50.7004 95.4886 51.0664L86.2386 55.6914L64.723 77.2109C64.3411 77.5924 63.8669 77.8685 63.3467 78.0122C62.8264 78.156 62.2778 78.1625 61.7542 78.0312L36.7542 71.7812C36.374 71.6858 36.015 71.5202 35.6956 71.293L14.0081 55.8086L4.52374 51.0664C3.04145 50.3254 1.91413 49.0261 1.38965 47.4541C0.865163 45.8821 0.986458 44.1662 1.72686 42.6836L11.4339 23.2734C12.1749 21.7912 13.4742 20.6638 15.0462 20.1394C16.6182 19.6149 18.3341 19.7362 19.8167 20.4766L28.4339 24.7734L49.137 18.8594C49.6987 18.6987 50.2941 18.6987 50.8558 18.8594L71.5589 24.7734L80.1761 20.4766C81.6587 19.7362 83.3746 19.6149 84.9466 20.1394C86.5186 20.6638 87.8179 21.7912 88.5589 23.2734L98.2659 42.6836C98.6362 43.4162 98.8575 44.2149 98.9172 45.0336C98.9769 45.8522 98.8737 46.6746 98.6136 47.4531ZM80.5745 52.5078L69.9456 31.25H57.5159L40.6253 47.6563C45.5706 50.8164 53.3245 51.6875 60.2816 44.6758C60.8249 44.1281 61.5516 43.8008 62.3218 43.7568C63.092 43.7128 63.8513 43.9553 64.4534 44.4375L77.8948 55.207L80.5745 52.5078ZM7.3167 45.4766L14.2269 48.9336L23.9339 29.5234L17.0237 26.0664L7.3167 45.4766ZM73.4378 59.6328L62.6136 50.9648C54.9808 57.2148 45.2894 58.0391 37.2581 52.918C36.4681 52.4154 35.8011 51.7418 35.3064 50.9469C34.8116 50.152 34.5018 49.2561 34.3998 48.3253C34.2978 47.3946 34.4062 46.4529 34.7171 45.5697C35.0279 44.6864 35.5332 43.8844 36.1956 43.2227C36.205 43.2113 36.2155 43.2008 36.2269 43.1914L53.7503 26.1953L50.0003 25.125L30.305 30.7539L19.6136 52.1328L38.8323 65.8633L61.5433 71.5391L73.4378 59.6328ZM92.6722 45.4766L82.9769 26.0664L76.0667 29.5234L85.7737 48.9336L92.6722 45.4766Z" fill="#CB0000"/>
</svg>
