<svg width="40" height="40" viewBox="0 0 40 40" fill="none" xmlns="http://www.w3.org/2000/svg">
<g id="ic:baseline-telegram">
<path id="Vector" d="M19.9997 3.33301C10.7997 3.33301 3.33301 10.7997 3.33301 19.9997C3.33301 29.1997 10.7997 36.6663 19.9997 36.6663C29.1997 36.6663 36.6663 29.1997 36.6663 19.9997C36.6663 10.7997 29.1997 3.33301 19.9997 3.33301ZM27.733 14.6663C27.483 17.2997 26.3997 23.6997 25.8497 26.6497C25.6163 27.8997 25.1497 28.3163 24.7163 28.3663C23.7497 28.4497 23.0163 27.733 22.083 27.1163C20.6163 26.1497 19.783 25.5497 18.3663 24.6163C16.7163 23.533 17.783 22.933 18.733 21.9663C18.983 21.7163 23.2497 17.833 23.333 17.483C23.3446 17.43 23.343 17.375 23.3285 17.3227C23.314 17.2704 23.2869 17.2225 23.2497 17.183C23.1497 17.0997 23.0163 17.133 22.8997 17.1497C22.7497 17.183 20.4163 18.733 15.8663 21.7997C15.1997 22.2497 14.5997 22.483 14.0663 22.4663C13.4663 22.4497 12.333 22.133 11.483 21.8497C10.433 21.5163 9.61634 21.333 9.68301 20.7497C9.71634 20.4497 10.133 20.1497 10.9163 19.833C15.783 17.7163 19.0163 16.3163 20.633 15.6497C25.2663 13.7163 26.2163 13.383 26.8497 13.383C26.983 13.383 27.2997 13.4163 27.4997 13.583C27.6663 13.7163 27.7163 13.8997 27.733 14.033C27.7163 14.133 27.7497 14.433 27.733 14.6663Z" fill="#CB0000"/>
</g>
</svg>
